<mxfile host="app.diagrams.net" agent="Mozilla/5.0 (Windows NT 10.0; Win64; x64) AppleWebKit/537.36 (KHTML, like Gecko) Chrome/130.0.0.0 Safari/537.36" version="24.8.6">
  <diagram name="Trang-1" id="Y02wqlHUfNZFBQk2mqGv">
    <mxGraphModel grid="1" page="1" gridSize="10" guides="1" tooltips="1" connect="1" arrows="1" fold="1" pageScale="1" pageWidth="827" pageHeight="1169" math="0" shadow="0">
      <root>
        <mxCell id="0" />
        <mxCell id="1" parent="0" />
        <mxCell id="JBpPfFZ8MUcxScktF4H_-3" value="" style="edgeStyle=orthogonalEdgeStyle;rounded=0;orthogonalLoop=1;jettySize=auto;html=1;" edge="1" parent="1" source="JBpPfFZ8MUcxScktF4H_-1" target="JBpPfFZ8MUcxScktF4H_-2">
          <mxGeometry relative="1" as="geometry" />
        </mxCell>
        <mxCell id="JBpPfFZ8MUcxScktF4H_-1" value="Bắt đầu" style="ellipse;whiteSpace=wrap;html=1;" vertex="1" parent="1">
          <mxGeometry x="354" y="50" width="120" height="80" as="geometry" />
        </mxCell>
        <mxCell id="JBpPfFZ8MUcxScktF4H_-5" value="" style="edgeStyle=orthogonalEdgeStyle;rounded=0;orthogonalLoop=1;jettySize=auto;html=1;" edge="1" parent="1" source="JBpPfFZ8MUcxScktF4H_-2" target="JBpPfFZ8MUcxScktF4H_-4">
          <mxGeometry relative="1" as="geometry" />
        </mxCell>
        <mxCell id="JBpPfFZ8MUcxScktF4H_-2" value="Nhập số có 3 chữ&lt;br&gt;số abc" style="shape=parallelogram;perimeter=parallelogramPerimeter;whiteSpace=wrap;html=1;fixedSize=1;" vertex="1" parent="1">
          <mxGeometry x="354" y="190" width="120" height="60" as="geometry" />
        </mxCell>
        <mxCell id="JBpPfFZ8MUcxScktF4H_-7" value="" style="edgeStyle=orthogonalEdgeStyle;rounded=0;orthogonalLoop=1;jettySize=auto;html=1;" edge="1" parent="1" source="JBpPfFZ8MUcxScktF4H_-4" target="JBpPfFZ8MUcxScktF4H_-6">
          <mxGeometry relative="1" as="geometry" />
        </mxCell>
        <mxCell id="JBpPfFZ8MUcxScktF4H_-4" value="Tách số&lt;br&gt;hàng trăm = a/100&lt;div&gt;hàng chục = ( b% 100)/10&lt;/div&gt;&lt;div&gt;hàng đơn vị = c%10&lt;/div&gt;" style="whiteSpace=wrap;html=1;" vertex="1" parent="1">
          <mxGeometry x="354" y="330" width="120" height="130" as="geometry" />
        </mxCell>
        <mxCell id="JBpPfFZ8MUcxScktF4H_-9" value="" style="edgeStyle=orthogonalEdgeStyle;rounded=0;orthogonalLoop=1;jettySize=auto;html=1;" edge="1" parent="1" source="JBpPfFZ8MUcxScktF4H_-6" target="JBpPfFZ8MUcxScktF4H_-8">
          <mxGeometry relative="1" as="geometry" />
        </mxCell>
        <mxCell id="JBpPfFZ8MUcxScktF4H_-6" value="số đảo ngược = c*100+b*10+c" style="whiteSpace=wrap;html=1;" vertex="1" parent="1">
          <mxGeometry x="354" y="575" width="120" height="60" as="geometry" />
        </mxCell>
        <mxCell id="JBpPfFZ8MUcxScktF4H_-11" value="" style="edgeStyle=orthogonalEdgeStyle;rounded=0;orthogonalLoop=1;jettySize=auto;html=1;" edge="1" parent="1" source="JBpPfFZ8MUcxScktF4H_-8" target="JBpPfFZ8MUcxScktF4H_-10">
          <mxGeometry relative="1" as="geometry" />
        </mxCell>
        <mxCell id="JBpPfFZ8MUcxScktF4H_-8" value="In số đảo ngược" style="whiteSpace=wrap;html=1;" vertex="1" parent="1">
          <mxGeometry x="354" y="715" width="120" height="60" as="geometry" />
        </mxCell>
        <mxCell id="JBpPfFZ8MUcxScktF4H_-10" value="Kết thúc" style="ellipse;whiteSpace=wrap;html=1;" vertex="1" parent="1">
          <mxGeometry x="354" y="870" width="120" height="80" as="geometry" />
        </mxCell>
      </root>
    </mxGraphModel>
  </diagram>
</mxfile>
